{"title":"Gay - This is Too Big (2012) [DVDRip]","uid":9027220,"size":1730016694,"categoryP":"porn","categoryS":"movies","magnet":"?xt=urn:btih:03bb35074076a76545e41fa07d21d92d54dbc52d&amp;dn=Gay+-+This+is+Too+Big+%282012%29+%5BDVDRip%5D&amp;tr=udp%3A%2F%2Ftracker.openbittorrent.com%3A80&amp;tr=udp%3A%2F%2Fopen.demonii.com%3A1337&amp;tr=udp%3A%2F%2Ftracker.coppersurfer.tk%3A6969&amp;tr=udp%3A%2F%2Fexodus.desync.com%3A6969","seeders":0,"leechers":3,"uploader":"Scringle","files":-1,"time":1381383218,"description":"Starring: Mathew Rush, Jack Dragon, Black Angel, Claudio Antonelli, Junior, Dawid Sweet, Joe Justice, David Sweet, Antonio Russo, Logan McCree, Orion Cross, Johnny Long, Jack Spade, Brian Kimble\n\nVideo\nFormat                         : AVC\nFormat/Info                    : Advanced Video Codec\nFormat profile                 : &lt;a class=&quot;__cf_email__&quot; href=&quot;/cdn-cgi/l/email-protection&quot; data-cfemail=&quot;92dafbf5fad2dea0bca3&quot;&gt;[email&amp;#160;protected]&lt;/a&gt;&lt;script cf-hash='f9e31' type=&quot;text/javascript&quot;&gt;\n/* &lt;![CDATA[ */!function(){try{var t=&quot;currentScript&quot;in document?document.currentScript:function(){for(var t=document.getElementsByTagName(&quot;script&quot;),e=t.length;e--;)if(t[e].getAttribute(&quot;cf-hash&quot;))return t[e]}();if(t&amp;&amp;t.previousSibling){var e,r,n,i,c=t.previousSibling,a=c.getAttribute(&quot;data-cfemail&quot;);if(a){for(e=&quot;&quot;,r=parseInt(a.substr(0,2),16),n=2;a.length-n;n+=2)i=parseInt(a.substr(n,2),16)^r,e+=String.fromCharCode(i);e=document.createTextNode(e),c.parentNode.replaceChild(e,c)}}}catch(u){}}();/* ]]&gt; */&lt;/script&gt;\nCodec ID                       : avc1\nDuration                       : 3h 48mn\nBit rate                       : 900 Kbps\nMaximum bit rate               : 2 417 Kbps\nWidth                          : 854 pixels\nHeight                         : 480 pixels\nFrame rate mode                : Constant\nFrame rate                     : 23.976 fps\nStream size                    : 1.43 GiB (89%)\n\nAudio\nFormat                         : AAC\nFormat/Info                    : Advanced Audio Codec\nFormat profile                 : LC\nCodec ID                       : 40\nDuration                       : 3h 48mn\nBit rate mode                  : Variable\nBit rate                       : 108 Kbps\nMaximum bit rate               : 146 Kbps\nChannel(s)                     : 2 channels\nChannel positions              : Front: L R\nSampling rate                  : 44.1 KHz\nStream size                    : 177 MiB (11%)\nLanguage                       : English\n\nScreenshots: http://bayimg.com/laAEGAAFM\n\nPlease seed and enjoy! :-)","torrent":{"xt":"urn:btih:03bb35074076a76545e41fa07d21d92d54dbc52d","amp;dn":"Gay+-+This+is+Too+Big+%282012%29+%5BDVDRip%5D","amp;tr":["udp%3A%2F%2Ftracker.openbittorrent.com%3A80","udp%3A%2F%2Fopen.demonii.com%3A1337","udp%3A%2F%2Ftracker.coppersurfer.tk%3A6969","udp%3A%2F%2Fexodus.desync.com%3A6969"],"infoHash":"03bb35074076a76545e41fa07d21d92d54dbc52d","infoHashBuffer":{"type":"Buffer","data":[3,187,53,7,64,118,167,101,69,228,31,160,125,33,217,45,84,219,197,45]},"announce":[],"urlList":[]}}